<?xml version="1.0" encoding="utf-8"?>
<!-- Generator: Adobe Illustrator 22.1.0, SVG Export Plug-In . SVG Version: 6.00 Build 0)  -->
<svg version="1.1" id="Layer_1" xmlns="http://www.w3.org/2000/svg" xmlns:xlink="http://www.w3.org/1999/xlink" x="0px" y="0px"
	 viewBox="0 0 2048 2048" style="enable-background:new 0 0 2048 2048;" xml:space="preserve">
<style type="text/css">
	.st0{fill:url(#SVGID_1_);}
	.st1{fill:#FFFFFF;}
</style>
<g>
	<linearGradient id="SVGID_1_" gradientUnits="userSpaceOnUse" x1="0.5" y1="2047.5" x2="2047.5" y2="0.5">
		<stop  offset="0" style="stop-color:#F26239"/>
		<stop  offset="0.2266" style="stop-color:#EC5437"/>
		<stop  offset="0.7054" style="stop-color:#E13C34"/>
		<stop  offset="1" style="stop-color:#DD3333"/>
	</linearGradient>
	<rect x="0.5" y="0.5" class="st0" width="2047" height="2047"/>
	<path d="M2047,1v2046H1V1H2047 M2048,0H0v2048h2048V0L2048,0z"/>
</g>
<path class="st1" d="M1603.2,673.1l-21.8-37.8c-13,7.2-29.3,2.7-36.8-10.2c-7.4-12.9-3.1-29.3,9.6-37l-20.9-36.1
	c-13,7.2-29.3,2.7-36.8-10.2c-7.4-12.9-3.1-29.3,9.6-36.9l-20.9-36.2c-13,7.2-29.3,2.7-36.8-10.2c-7.4-12.9-3.1-29.3,9.6-37
	l-21.2-36.7c-36.2,20.6-82.1,8.1-102.9-27.9c0-0.1-0.1-0.2-0.1-0.2s-113.4,20.7-373.7,171C699.6,678,626.6,765.1,626.6,765.1
	c0,0,0.1,0.1,0.1,0.2c20.9,36.2,8.4,82.5-27.7,103.4c-0.4,0.2-1.3,0.6-1.3,0.6c0,0,0.1,0,0.1,0.1l0,0.1c0,0,0,0,0,0
	c-0.1,0-0.1-0.1-0.1-0.1l127.5,259.7l4.3,8.8c9.5-3,18.9-6.1,28.5-9.2l-67.3-161.8l87.7,155c4-1.3,8-2.7,11.9-4
	c1.9-0.7,3.7-1.4,5.6-2L743,983.5l73,124.8c6.8-2.5,13.7-4.9,20.5-7.4l-44-108.7l58.9,103.3c7.7-2.9,15-5.8,22.5-8.7l-35.4-89.1
	l49.3,83.7c6-2.4,12.3-4.7,18.1-7.1c1.7-0.7,3.3-1.3,4.9-2l-27.2-72.4l41,66.7c7.7-3.2,15.2-6.4,22.6-9.6l-19.8-58l33.9,51.9
	c7.8-3.6,15.4-7,22.8-10.3l-13-43.9l26.8,37.5c2.2-1,4.7-2.1,6.8-3.2c5.2-2.6,10-5,14.9-7.4l-4.6-26.2l18.1,19.4
	c3.4-1.7,7-3.5,10.2-5.1c11.6-5.7,21.1-11.5,29.3-15.8c10.1-5.6,17.1-9.5,21.3-11.8c11.4-7.2,22.1-14.2,31.6-20.5
	c-9.5,6.4-27.5,18.2-27.5,18.2s-8.8,5.9-24.1,16.2c-7.8,5-16.9,11.7-27.9,18.3c-11,6.7-23.5,14.3-37,22.5
	c-13.7,8.1-28.8,16.2-44.7,25.2c-15.8,9.1-33.1,17.4-50.7,26.7c-35.4,18.1-73.9,36.1-112.6,53.5c-77.7,34.4-157.1,65-217.2,86.5
	c-60,21.5-101.2,34.1-101.2,34.1l-0.2,0.1c0,0-0.1,0-0.1,0c12.4,35.4-3,75.2-37.4,92.4l19.2,39.1c13.4-6.2,29.4-0.7,35.9,12.7
	c6.6,13.4,1.2,29.4-12,36.2l18.4,37.5c13.4-6.3,29.4-0.7,36,12.7c6.5,13.3,1.2,29.4-12,36.1l18.5,37.6c13.3-6.3,29.4-0.7,35.9,12.7
	c6.6,13.3,1.2,29.4-12,36.1l18.7,38.1c37.4-18,82.5-2.6,100.7,34.9c0.1,0,0.1,0.1,0.1,0.1c0,0,114.5-13,384.4-145.3
	c269.9-132.5,348.7-214.2,348.7-214.2c0,0-0.1-0.1-0.1-0.2c-18.4-37.5-2.9-82.9,34.6-101.2c0.4-0.2,0.8-0.4,1.2-0.5l-18.7-38.1
	c-0.2,0.1-0.3,0.1-0.5,0.2c-13.5,6.7-29.9,1-36.4-12.5c-6.7-13.5-1.2-29.8,12.4-36.4c0.2,0,0.3-0.1,0.5-0.2l-18.4-37.5
	c-0.2,0.1-0.3,0.2-0.4,0.3c-13.5,6.6-29.8,0.9-36.4-12.5c-6.7-13.5-1.1-29.8,12.4-36.4c0.1-0.1,0.3-0.2,0.5-0.3l-18.4-37.5
	c-0.2,0.1-0.4,0.2-0.4,0.3c-13.5,6.6-29.9,1-36.5-12.5c-6.7-13.5-1.1-29.8,12.4-36.5c0.2,0,0.3-0.1,0.5-0.2l-18.6-37.7l-0.6-1.4
	c-0.5,0.2-0.8,0.4-1.1,0.6c-35.5,17.4-77.9,4.5-98-28.8c0,0-325.5,121.6-551.9,8.7c-11.3-6.8-29-17.6-30.6-18.6
	c-0.7-0.4-10.7-7.3-19.9-13.5c235,147.9,599.6-24.1,599.6-24.1c40.7,63,105.2,28.5,105.2,28.5c179.5-93.4,258.2-107.4,258.2-107.4
	C1555.1,740.2,1567.4,694.1,1603.2,673.1z"/>
</svg>
